<?xml version="1.0" encoding="UTF-8"?>
<svg xmlns="http://www.w3.org/2000/svg" width="203" height="52" viewBox="0 0 203 52" fill="none">
  <path d="M34.033 32.0345L27.6607 7.06033L21.0846 6.37722L13.81 35.97L6.38247 4.80709L0 4.15967L10.5219 51.549L16.9095 50.3255L24.3166 20.8295L31.3924 48.5464L37.9074 47.8633L44.3765 8.83946L38.1368 8.16145L34.033 32.0345Z" fill="#021740"></path>
  <path d="M55.2549 39.6661L55.2039 30.8468L72.2255 30.6786L72.2153 24.4848L55.1682 24.6989L55.1121 15.7573L72.1236 16.68L72.0522 10.532L48.9336 8.85486L48.9795 46.1709L72.4345 44.5956L72.3785 38.203L55.2549 39.6661Z" fill="#021740"></path>
  <path d="M127.674 10.3844L127.991 31.4129L117.683 10.9604L110.169 11.4243L109.761 43.8872L116.592 43.9841L116.342 21.6506L127.226 44.1982L134.643 44.4939L134.189 9.99695L127.674 10.3844Z" fill="#021740"></path>
  <path d="M147.877 39.0187L147.745 30.3677L165.184 30.3983L165.199 23.7711L147.643 23.975L147.505 15.6503L165.179 13.7743L165.154 6.87695L141.066 9.69095L141.469 44.9678L165.215 47.476L165.189 40.7316L147.877 39.0187Z" fill="#021740"></path>
  <path d="M190.836 32.0858C193.125 31.6117 194.909 29.4859 195.001 27.1613C195.006 27.0542 195.011 26.9421 195.011 26.8197L194.818 8.1566L194.807 7.58565V7.55506C194.649 5.28653 192.692 3.37485 190.418 3.2474C190.173 3.22701 189.934 3.22191 189.694 3.2525L170.547 5.87278L171.026 48.516L177.449 49.3062L177.194 32.6057L184.076 32.5904L188.369 50.6418L195.343 51.4727L190.836 32.0959V32.0858ZM188.308 24.2504C188.313 24.7857 188.043 25.3057 187.604 25.6013C187.487 25.688 187.288 25.7798 187.145 25.8256C187.074 25.846 187.013 25.8613 186.952 25.8664H186.921C186.921 25.8664 186.875 25.8766 186.855 25.8817C186.829 25.8817 186.809 25.8817 186.783 25.8868L177.072 26.2538L176.853 11.9188L185.769 10.5424C185.952 10.5169 186.182 10.5271 186.365 10.5526C186.467 10.5679 186.564 10.5934 186.651 10.6188C187.344 10.833 187.879 11.3937 188.078 12.0819C188.104 12.1788 188.124 12.2807 188.134 12.3572C188.134 12.4031 188.145 12.4439 188.145 12.5101C188.145 12.5713 188.15 12.6325 188.15 12.7039L188.308 24.2555V24.2504Z" fill="#021740"></path>
  <path d="M100.279 32.0759C100.524 31.9944 100.763 31.8873 100.967 31.7599C101.987 31.1787 102.696 30.0419 102.767 28.8643C102.777 28.7827 102.777 28.6961 102.777 28.6094L102.787 14.1418C102.787 14.0653 102.787 13.9838 102.777 13.9226C102.767 13.8308 102.757 13.734 102.741 13.6677C102.558 12.4697 101.691 11.4043 100.56 10.9812C100.412 10.92 100.254 10.8741 100.111 10.8384C99.9223 10.7925 99.7133 10.762 99.5145 10.7518L78.8174 10.5682L79.0621 44.275L85.7198 44.0099L85.5975 32.5551L93.0556 32.4837L96.9044 43.9946L103.99 43.8621L99.7949 32.2034C99.9478 32.1728 100.106 32.132 100.279 32.0759ZM96.257 24.5261C96.257 24.5974 96.2519 24.6331 96.2366 24.7147C96.2162 24.8472 96.1652 25.0104 96.1143 25.1327C96.0684 25.2296 96.0174 25.3213 95.946 25.4233C95.8339 25.5864 95.6606 25.7444 95.4872 25.8515C95.2629 25.9891 95.0437 26.0758 94.7837 26.1013L85.5108 26.2287L85.414 17.0578L94.6002 17.1444C94.6716 17.1444 94.7379 17.1546 94.8092 17.1648C94.8806 17.1801 94.952 17.1954 95.0386 17.2209C95.2935 17.2974 95.5331 17.4401 95.7268 17.644C95.9664 17.8836 96.1245 18.2201 96.1653 18.5667C96.1653 18.5922 96.1652 18.6126 96.1703 18.6381V18.6483C96.1703 18.684 96.1703 18.7196 96.1703 18.7553L96.2519 24.5312L96.257 24.5261Z" fill="#021740"></path>
  <path d="M203 3.28809C203 5.15389 201.547 6.61696 199.681 6.61696C197.816 6.61696 196.378 5.15389 196.378 3.30848C196.378 1.46307 197.816 0 199.697 0C201.578 0 203 1.42739 203 3.29319V3.28809ZM202.363 3.28809C202.363 1.75875 201.246 0.60664 199.697 0.60664C198.147 0.60664 197.025 1.78933 197.025 3.30848C197.025 4.82763 198.152 6.01033 199.681 6.01033C201.211 6.01033 202.363 4.81744 202.363 3.29319V3.28809ZM200.742 3.90493L201.537 5.12331H200.563L199.88 4.07315H199.233V5.12331H198.259V1.48346H199.844C200.839 1.48346 201.43 1.98815 201.43 2.77831C201.43 3.31358 201.185 3.69592 200.747 3.90493H200.742ZM199.778 3.34417C200.217 3.34417 200.471 3.14025 200.471 2.78341C200.471 2.42656 200.217 2.21245 199.778 2.21245H199.223V3.34926H199.778V3.34417Z" fill="#021740"></path>
</svg>
