<svg version="1.2" xmlns="http://www.w3.org/2000/svg" viewBox="0 0 783 176" width="783" height="176">
	<title>ch</title>
	<style>
		.s0 { fill: #ffffff } 
		.s1 { fill: #fcfcfc } 
	</style>
	<path fill-rule="evenodd" class="s0" d="m55.9 41.8l16.3-9.5v39.3l3.8 2.2 3.7-2.2v-39.3l16.3 9.5 3.8-6.5-23.8-13.7-23.8 13.7 3.7 6.5z"/>
	<path fill-rule="evenodd" class="s0" d="m46.2 128.1l-16.3-9.4 34-19.7v-4.3l-3.7-2.2-34.1 19.7v-18.9h-7.4v27.5l23.8 13.8 3.7-6.5z"/>
	<path class="s0" d="m76 0l-76 43.9v87.7l76 43.8 76-43.8v-87.7zm68.5 127.2l-68.5 39.7-68.5-39.7v-79.1l68.5-39.5 68.5 39.5z"/>
	<path fill-rule="evenodd" class="s0" d="m105.7 47.4l16.4 9.4-46.1 26.6-46.1-26.6 16.3-9.4-3.7-6.5-23.8 13.7v27.5h7.4v-18.8l46.1 26.6v53.2l-16.3-9.4-3.7 6.5 23.8 13.7 23.8-13.7-3.8-6.5-16.3 9.4v-53.2l46.1-26.6v18.8h7.5v-27.5l-23.8-13.7-3.8 6.5z"/>
	<path fill-rule="evenodd" class="s0" d="m125.8 93.3v18.9l-34-19.7-3.8 2.2v4.3l34.1 19.7-16.4 9.4 3.8 6.5 23.8-13.8v-27.5h-7.5z"/>
	<path class="s0" d="m145.5 142h2q2 0.1 2 1.6 0 0.2 0 0.3-0.1 0.2-0.1 0.3-0.1 0.2-0.2 0.3 0 0.1-0.2 0.2-0.1 0.1-0.2 0.2-0.1 0-0.2 0.1-0.2 0-0.3 0.1-0.1 0-0.3 0l1.6 2.5h-0.9l-1.5-2.4h-0.9v2.4h-0.8zm0.8 2.4h0.9 0.5q0.1 0 0.2 0 0 0 0.1 0 0 0 0.1-0.1 0.1 0 0.1 0 0.1 0 0.1 0 0.1-0.1 0.1-0.1 0 0 0.1-0.1 0 0 0-0.1 0.1 0 0.1-0.1 0-0.1 0-0.1 0.1-0.1 0.1-0.2 0 0 0-0.1 0 0 0-0.1-0.1-0.1-0.1-0.1 0-0.1 0-0.1 0-0.1-0.1-0.1 0-0.1 0-0.1 0-0.1-0.1-0.1 0 0-0.1 0 0-0.1 0-0.1-0.1 0-0.1 0-0.1-0.1-0.1-0.1-0.1 0-0.1 0-0.1 0-0.1 0-0.1 0-0.1 0-0.1 0-0.2 0 0 0-0.1 0 0 0-0.1 0h-1.1z"/>
	<path class="s0" d="m147.3 150.4c-2.3 0-4.3-1.4-5.2-3.5-0.9-2-0.4-4.4 1.2-6 1.6-1.6 4-2.1 6.1-1.2 2.1 0.8 3.4 2.9 3.4 5.1q0 1.1-0.4 2.1-0.4 1.1-1.2 1.9-0.8 0.7-1.8 1.2-1 0.4-2.2 0.4zm0-10.2c-1.8 0-3.5 1.1-4.2 2.8-0.7 1.8-0.3 3.8 1 5.1 1.3 1.3 3.3 1.7 5 1 1.8-0.7 2.9-2.4 2.9-4.3q0-0.9-0.4-1.8-0.3-0.8-1-1.5-0.6-0.6-1.5-1-0.8-0.3-1.8-0.3z"/>
	<path class="s0" d="m235.7 110c-2.7 3.6-7.2 8.4-12.9 8.4h-12.6q-0.9 0-1.7-0.1-0.8-0.1-1.6-0.3-0.8-0.3-1.6-0.6-0.7-0.3-1.4-0.8-1.1-0.7-2.1-1.5-1-0.9-1.9-1.8-0.9-0.9-1.8-1.9-0.8-0.9-1.6-2-0.4-0.6-0.7-1.3-0.3-0.7-0.6-1.4-0.2-0.8-0.3-1.5 0-0.8 0-1.5v-31.9q0-0.8 0.1-1.5 0-0.8 0.3-1.5 0.2-0.7 0.5-1.4 0.3-0.7 0.7-1.3c1.2-1.7 5.3-6.1 7.4-7.3q0.7-0.4 1.5-0.7 0.7-0.3 1.5-0.6 0.8-0.2 1.6-0.3 0.8-0.2 1.7-0.2h12.6c5.7 0 10.2 5 12.9 8.4q0.3 0.4 0.5 0.9 0.3 0.4 0.6 0.8 0.3 0.5 0.5 0.9 0.3 0.5 0.5 1l-10.3 2.9c0 0-3-3.8-4.6-4.7q0 0-0.1 0 0-0.1-0.1-0.1 0 0-0.1 0 0 0-0.1 0h-11.9q-0.1 0-0.1 0-0.1 0-0.1 0-0.1 0.1-0.1 0.1-0.1 0-0.1 0-0.7 0.5-1.3 1-0.7 0.5-1.2 1-0.6 0.6-1.1 1.2-0.6 0.6-1 1.3 0 0.1-0.1 0.3 0 0.1 0 0.2 0 0.2 0 0.3 0 0.2 0 0.3v30.8c0 1.2 3.1 3.8 4.7 4.6 0.1 0.1 0.6 0.1 0.7 0.1h11.5q0.1 0 0.1 0 0.1 0 0.2 0 0 0 0.1 0 0.1 0 0.1-0.1c2.1-1 4.6-4.7 4.6-4.7l10.3 2.7q-0.2 0.5-0.4 1-0.3 0.5-0.6 1-0.2 0.5-0.5 0.9-0.3 0.5-0.6 0.9z"/>
	<path class="s0" d="m247.1 117.9v-12.7h12.5v12.7z"/>
	<path class="s0" d="m302.9 117.9v-25h-22.1v25h-10.6v-60.5h10.6v25.4h22.1v-25.4h10.6v60.5z"/>
	<path class="s0" d="m324.2 117.9v-12.7h12.4v12.7z"/>
	<path class="s0" d="m411.4 86.5q-0.6 0.7-1.2 1.4-0.7 0.7-1.3 1.4-0.7 0.7-1.4 1.3-0.8 0.7-1.5 1.3-0.3 0.2-0.6 0.4-0.3 0.2-0.7 0.4-0.3 0.2-0.7 0.3-0.3 0.2-0.6 0.3l12 24.7h-11.6l-11.2-23.9h-11.6v23.9h-10.7v-60.6h28.5q0.9 0 1.9 0.2 0.9 0.1 1.8 0.4 1 0.3 1.8 0.7 0.9 0.4 1.7 0.9 0.7 0.6 1.5 1.3 0.7 0.7 1.4 1.4 0.7 0.7 1.3 1.4 0.6 0.7 1.3 1.5 0.4 0.7 0.7 1.4 0.4 0.8 0.6 1.6 0.2 0.7 0.4 1.6 0.1 0.8 0.1 1.6v8.9q0 0.8-0.1 1.6-0.2 0.8-0.4 1.6-0.2 0.8-0.6 1.5-0.3 0.8-0.8 1.5zm-8.8-15q0-0.1 0-0.2 0-0.1 0-0.2 0-0.1 0-0.2 0-0.1-0.1-0.2c-0.6-1.1-2.2-3.1-3.2-3.2h-18.3v16.4h17.8c0.9 0 2.9-1.9 3.7-3.3q0.1-0.1 0.1-0.1 0-0.1 0-0.1 0-0.1 0-0.1 0-0.1 0-0.1z"/>
	<path class="s0" d="m469.6 109.3c-1.4 1.8-5.3 6.1-7.4 7.3q-0.8 0.5-1.5 0.8-0.8 0.3-1.6 0.5-0.8 0.3-1.6 0.4-0.8 0.1-1.6 0.1h-15.4q-0.8 0-1.6-0.1-0.9-0.1-1.7-0.3-0.8-0.3-1.5-0.6-0.8-0.3-1.5-0.8c-2.1-1.2-6.2-5.5-7.4-7.3q-0.4-0.6-0.7-1.3-0.3-0.7-0.5-1.4-0.2-0.8-0.3-1.5-0.1-0.8-0.1-1.5v-31.7q0-0.8 0.1-1.5 0.1-0.8 0.3-1.5 0.2-0.8 0.5-1.5 0.3-0.6 0.7-1.3c1.2-1.7 5.3-6.1 7.4-7.3q0.7-0.4 1.5-0.7 0.7-0.4 1.5-0.6 0.8-0.2 1.7-0.4 0.8-0.1 1.6-0.1h15.4q0.8 0 1.6 0.2 0.8 0.1 1.6 0.3 0.8 0.2 1.6 0.6 0.7 0.3 1.5 0.7c2.1 1.2 6 5.6 7.3 7.3q0.5 0.7 0.8 1.3 0.3 0.7 0.5 1.5 0.2 0.7 0.3 1.5 0.1 0.7 0.1 1.5v31.7q0 0.7-0.1 1.5-0.1 0.7-0.3 1.5-0.2 0.7-0.5 1.4-0.3 0.7-0.8 1.3zm-33.7-5.8c0 0 0 0.3 0.1 0.4q0.5 0.6 1 1.2 0.5 0.6 1.1 1.2 0.5 0.5 1.1 1 0.6 0.5 1.3 0.9 0 0.1 0.1 0.1 0.1 0 0.1 0 0.1 0 0.2 0 0 0 0.1 0h14.6q0 0 0.1 0 0.1 0 0.1 0 0.1 0 0.2 0 0 0 0.1-0.1 0.6-0.4 1.2-0.9 0.7-0.5 1.2-1 0.6-0.6 1.1-1.2 0.5-0.6 0.9-1.2 0.1-0.1 0.1-0.1 0-0.1 0-0.1 0-0.1 0-0.1 0-0.1 0-0.1v-31.3c0 0 0-0.4-0.1-0.5q-0.4-0.7-0.9-1.3-0.5-0.6-1.1-1.2-0.5-0.5-1.2-1-0.6-0.5-1.2-1-0.1 0-0.1 0-0.1 0-0.2-0.1 0 0-0.1 0-0.1 0-0.1 0h-14.6c0 0-0.4 0-0.5 0.1q-0.7 0.5-1.3 1-0.6 0.5-1.1 1-0.6 0.6-1.1 1.2-0.5 0.6-0.9 1.3 0 0-0.1 0.1 0 0.1 0 0.1 0 0.1 0 0.2 0 0 0 0.1z"/>
	<path class="s0" d="m525.3 110.3q-0.6 0.7-1.2 1.4-0.6 0.8-1.3 1.4-0.7 0.7-1.4 1.4-0.7 0.6-1.4 1.2-0.8 0.6-1.7 1-0.9 0.4-1.8 0.7-0.9 0.2-1.9 0.4-1 0.1-1.9 0.1h-28.5v-60.5h28.5q1 0 1.9 0.2 1 0.1 1.9 0.4 0.9 0.3 1.8 0.7 0.9 0.5 1.7 1 0.7 0.6 1.4 1.3 0.7 0.6 1.4 1.3 0.7 0.7 1.3 1.4 0.7 0.7 1.2 1.5 0.5 0.7 0.8 1.5 0.4 0.7 0.6 1.5 0.2 0.8 0.3 1.6 0.1 0.9 0.1 1.7v7.5c0 4.2-1.6 6.4-4 8.8 2.3 2.3 4 4.4 4 8.7v7.7q0 0.8-0.1 1.6-0.1 0.8-0.3 1.5-0.3 0.8-0.6 1.5-0.3 0.8-0.8 1.5zm-8.9-31.5v-7.2q0-0.1 0-0.1 0-0.1 0-0.2 0 0 0-0.1 0-0.1-0.1-0.1c-0.9-1.7-2.8-3.6-3.7-3.6h-17.7v15.3h17.8c0.9 0 2.9-1.8 3.6-3.3q0.1-0.1 0.1-0.2 0-0.1 0-0.2 0-0.1 0-0.2 0 0 0-0.1zm0 25v-7.2q0-0.1 0-0.1 0-0.1 0-0.2 0 0 0-0.1 0-0.1-0.1-0.1c-0.9-1.6-2.8-3.5-3.7-3.5h-17.7v15.2h17.8c0.9 0 2.9-1.8 3.6-3.3q0.1-0.1 0.1-0.2 0-0.1 0-0.2 0-0.1 0-0.2 0 0 0-0.1z"/>
	<path class="s0" d="m541.4 117.9v-60.5h10.7v60.5z"/>
	<path class="s0" d="m599.3 117.9l-21-40.2v40.2h-10.6v-60.5h11.4l20.8 40.7v-40.7h10.6v60.5z"/>
	<path class="s0" d="m667.7 109.3c-1.2 1.9-5.3 6.1-7.4 7.3q-0.7 0.4-1.5 0.8-0.7 0.3-1.5 0.5-0.8 0.2-1.6 0.4-0.9 0.1-1.7 0.1h-17.6c-6 0-10.2-4.8-12.9-8.4q-0.2-0.3-0.5-0.7-0.2-0.4-0.4-0.8-0.3-0.4-0.5-0.8-0.2-0.4-0.4-0.8l10-3.3q0.5 0.6 1 1.2 0.5 0.7 1.1 1.2 0.6 0.6 1.2 1.2 0.6 0.5 1.2 1 0.1 0.1 0.2 0.1 0 0 0.1 0 0.1 0 0.2 0 0.1 0 0.2 0h16.6q0.1 0 0.2 0 0 0 0.1 0 0.1 0 0.2 0 0 0 0.1-0.1c1.5-0.8 4.6-3.8 4.6-4.6v-6q0-0.3-0.1-0.6-0.1-0.3-0.3-0.5-0.1-0.2-0.4-0.4-0.2-0.2-0.5-0.3l-26.3-7.5c-5.1-1.4-7.9-6.3-7.9-11v-5.4q0-0.8 0.1-1.5 0.1-0.8 0.3-1.5 0.2-0.7 0.5-1.4 0.2-0.7 0.6-1.4 0.8-1 1.7-2 0.9-1 1.8-1.9 1-0.9 2-1.8 1-0.8 2-1.6 0.8-0.4 1.5-0.7 0.8-0.3 1.6-0.6 0.8-0.2 1.6-0.3 0.8-0.2 1.6-0.2h15c6.1 0 10.2 5 12.9 8.4q0.3 0.4 0.5 0.8 0.3 0.5 0.6 0.9 0.2 0.5 0.4 0.9 0.3 0.5 0.5 1l-10.2 2.9q-0.5-0.7-1-1.3-0.5-0.6-1.1-1.2-0.5-0.6-1.1-1.1-0.6-0.6-1.3-1.1c-0.4-0.3-0.1-0.1-0.6-0.1h-14.3q0 0-0.1 0-0.1 0-0.2 0 0 0.1-0.1 0.1-0.1 0-0.2 0c-1.6 0.8-4.3 3.7-4.3 4.5v5q0 0.3 0 0.6 0.1 0.2 0.2 0.5 0.2 0.2 0.4 0.4 0.2 0.2 0.5 0.3l26.4 7.7c5.2 1.4 7.9 6.4 7.9 11v6.3q0 0.8-0.1 1.6 0 0.7-0.3 1.5-0.2 0.7-0.5 1.4-0.3 0.7-0.7 1.3z"/>
	<path class="s0" d="m725.1 109.3c-1.3 1.8-5.3 6.1-7.4 7.3q-0.7 0.5-1.5 0.8-0.7 0.3-1.5 0.5-0.8 0.3-1.6 0.4-0.8 0.1-1.7 0.1h-15.4q-0.8 0-1.6-0.1-0.8-0.1-1.6-0.3-0.8-0.3-1.6-0.6-0.7-0.3-1.4-0.8c-2.2-1.2-6.2-5.5-7.4-7.3q-0.4-0.6-0.8-1.3-0.3-0.7-0.5-1.4-0.2-0.8-0.3-1.5-0.1-0.8-0.1-1.5v-31.7q0-0.8 0.1-1.5 0.1-0.8 0.3-1.5 0.2-0.8 0.5-1.5 0.4-0.6 0.8-1.3c1.2-1.7 5.2-6.1 7.4-7.3q0.7-0.4 1.4-0.7 0.8-0.4 1.6-0.6 0.8-0.2 1.6-0.4 0.8-0.1 1.6-0.1h15.4q0.9 0 1.7 0.2 0.8 0.1 1.6 0.3 0.8 0.2 1.5 0.6 0.8 0.3 1.5 0.7c2.1 1.2 6.1 5.6 7.4 7.3q0.4 0.7 0.7 1.3 0.3 0.7 0.5 1.5 0.2 0.7 0.3 1.5 0.1 0.7 0.1 1.5v31.7q0 0.7-0.1 1.5-0.1 0.7-0.3 1.5-0.2 0.7-0.5 1.4-0.3 0.7-0.7 1.3zm-33.7-5.8c0 0 0 0.3 0.1 0.4q0.4 0.6 0.9 1.2 0.5 0.6 1.1 1.2 0.6 0.5 1.2 1 0.6 0.5 1.2 0.9 0.1 0.1 0.2 0.1 0 0 0.1 0 0 0 0.1 0 0.1 0 0.1 0h14.6q0 0 0.1 0 0.1 0 0.1 0 0.1 0 0.2 0 0 0 0.1-0.1 0.7-0.4 1.3-0.9 0.6-0.5 1.1-1 0.6-0.6 1.1-1.2 0.5-0.6 1-1.2 0-0.1 0-0.1 0-0.1 0.1-0.1 0-0.1 0-0.1 0-0.1 0-0.1v-31.3c0 0 0-0.4-0.1-0.5q-0.5-0.7-1-1.3-0.5-0.6-1-1.2-0.6-0.5-1.2-1-0.6-0.5-1.3-1 0 0-0.1 0-0.1 0-0.1-0.1-0.1 0-0.1 0-0.1 0-0.2 0h-14.6c0 0-0.4 0-0.5 0.1q-0.6 0.5-1.2 1-0.6 0.5-1.2 1-0.6 0.6-1.1 1.2-0.5 0.6-0.9 1.3 0 0-0.1 0.1 0 0.1 0 0.1 0 0.1 0 0.2 0 0 0 0.1z"/>
	<path class="s1" d="m771.4 117.9l-21-40.2v40.2h-10.6v-60.5h11.4l20.8 40.7v-40.7h10.6v60.5z"/>
</svg>